<svg width="22" height="21" viewBox="0 0 22 21" fill="none" xmlns="http://www.w3.org/2000/svg">
    <path opacity="0.4" fill-rule="evenodd" clip-rule="evenodd" d="M4.76379 18.5885C4.76379 17.7485 5.47831 17.0685 6.36095 17.0685C7.23308 17.0685 7.9476 17.7485 7.9476 18.5885C7.9476 19.4185 7.23308 20.0985 6.36095 20.0985C5.47831 20.0985 4.76379 19.4185 4.76379 18.5885ZM16.5849 18.5885C16.5849 17.7485 17.2994 17.0685 18.182 17.0685C19.0541 17.0685 19.7687 17.7485 19.7687 18.5885C19.7687 19.4185 19.0541 20.0985 18.182 20.0985C17.2994 20.0985 16.5849 19.4185 16.5849 18.5885Z" fill="#B8BABF"/>
    <path fill-rule="evenodd" clip-rule="evenodd" d="M19.7689 4.34896C20.4099 4.34896 20.8302 4.55896 21.2505 5.01896C21.6708 5.47896 21.7443 6.13896 21.6498 6.73796L20.6516 13.298C20.4624 14.559 19.3276 15.488 17.9931 15.488H6.52932C5.13181 15.488 3.97597 14.468 3.86039 13.149L2.89369 2.24796L1.30704 1.98796C0.886732 1.91796 0.592519 1.52796 0.666073 1.12796C0.739626 0.717964 1.14942 0.447964 1.58023 0.507964L4.0863 0.867964C4.44356 0.928964 4.70625 1.20796 4.73777 1.54796L4.93742 3.78796C4.96894 4.10896 5.24214 4.34896 5.57838 4.34896H19.7689ZM13.4013 9.54796H16.3119C16.7532 9.54796 17.1 9.20796 17.1 8.79796C17.1 8.37796 16.7532 8.04796 16.3119 8.04796H13.4013C12.96 8.04796 12.6132 8.37796 12.6132 8.79796C12.6132 9.20796 12.96 9.54796 13.4013 9.54796Z" fill="#B8BABF"/>
</svg>
