<svg width="22" height="17" viewBox="0 0 22 17" fill="none" xmlns="http://www.w3.org/2000/svg">
    <path d="M11.1573 17C11.019 17.0008 10.882 16.9756 10.7539 16.9258C10.6259 16.876 10.5095 16.8027 10.4113 16.71L2.24688 8.93002C1.22276 7.94519 0.648315 6.61558 0.648315 5.23002C0.648315 3.84445 1.22276 2.51484 2.24688 1.53002C3.279 0.550528 4.67711 0.000488281 6.1347 0.000488281C7.59228 0.000488281 8.99039 0.550528 10.0225 1.53002L11.1573 2.61002L12.2922 1.53002C13.3243 0.550528 14.7224 0.000488281 16.18 0.000488281C17.6376 0.000488281 19.0357 0.550528 20.0678 1.53002C21.0919 2.51484 21.6664 3.84445 21.6664 5.23002C21.6664 6.61558 21.0919 7.94519 20.0678 8.93002L11.9034 16.71C11.8052 16.8027 11.6888 16.876 11.5607 16.9258C11.4327 16.9756 11.2956 17.0008 11.1573 17Z" fill="#B8BABF"/>
</svg>
