<svg width="18" height="16" viewBox="0 0 18 16" fill="none" xmlns="http://www.w3.org/2000/svg">
    <path d="M16.5 6.11745H12.9075L9.6225 1.19745C9.48 0.987446 9.24 0.882446 9 0.882446C8.76 0.882446 8.52 0.987446 8.3775 1.20495L5.0925 6.11745H1.5C1.0875 6.11745 0.75 6.45495 0.75 6.86745C0.75 6.93495 0.7575 7.00245 0.78 7.06995L2.685 14.0224C2.8575 14.6524 3.435 15.1174 4.125 15.1174H13.875C14.565 15.1174 15.1425 14.6524 15.3225 14.0224L17.2275 7.06995L17.25 6.86745C17.25 6.45495 16.9125 6.11745 16.5 6.11745ZM9 2.96745L11.1 6.11745H6.9L9 2.96745ZM13.875 13.6174L4.1325 13.6249L2.4825 7.61745H15.525L13.875 13.6174ZM9 9.11745C8.175 9.11745 7.5 9.79245 7.5 10.6174C7.5 11.4424 8.175 12.1174 9 12.1174C9.825 12.1174 10.5 11.4424 10.5 10.6174C10.5 9.79245 9.825 9.11745 9 9.11745Z" fill="#BDC4CD"/>
</svg>
