<svg width="19" height="20" viewBox="0 0 19 20" fill="none" xmlns="http://www.w3.org/2000/svg">
    <path fill-rule="evenodd" clip-rule="evenodd" d="M0.728455 8.31776C0.728455 3.71789 4.76746 0 9.65304 0C14.5524 0 18.5914 3.71789 18.5914 8.31776C18.5914 10.6357 17.7056 12.7876 16.2477 14.6116C14.6393 16.6235 12.6569 18.3765 10.4255 19.7524C9.91475 20.0704 9.45384 20.0944 8.89334 19.7524C6.64922 18.3765 4.6668 16.6235 3.07218 14.6116C1.61318 12.7876 0.728455 10.6357 0.728455 8.31776ZM6.71173 8.57675C6.71173 10.1177 8.03299 11.3297 9.65304 11.3297C11.2741 11.3297 12.6081 10.1177 12.6081 8.57675C12.6081 7.0478 11.2741 5.77683 9.65304 5.77683C8.03299 5.77683 6.71173 7.0478 6.71173 8.57675Z" fill="#B8BABF"/>
</svg>
